<svg width="812" height="372" viewBox="0 0 812 372" fill="none" xmlns="http://www.w3.org/2000/svg" xmlns:xlink="http://www.w3.org/1999/xlink">
<g clip-path="url(#clip0_5406_1499)">
<g opacity="0.15">
<path d="M618.786 330.626L619.786 330.626L619.786 332L618.786 332L618.786 330.626ZM618.786 226L619.786 226L619.786 227.374L618.786 227.374L618.786 226ZM617.206 330.626L618.206 330.626L618.206 332L617.206 332L617.206 330.626ZM617.206 226L618.206 226L618.206 227.374L617.206 227.374L617.206 226ZM443.398 330.626L444.398 330.626L444.398 332L443.398 332L443.398 330.626ZM443.398 226L444.398 226L444.398 227.374L443.398 227.374L443.398 226ZM441.818 330.626L442.818 330.626L442.818 332L441.818 332L441.818 330.626ZM441.818 226L442.818 226L442.818 227.374L441.818 227.374L441.818 226Z" fill="white"/>
<path opacity="0.25" d="M439.75 329.252C430.151 329.252 422.369 321.518 422.369 311.978L422.369 246.022C422.369 236.482 430.151 228.748 439.75 228.748L622.248 228.748C631.847 228.748 639.629 236.482 639.629 246.022L639.629 311.978C639.629 321.518 631.847 329.252 622.248 329.252L439.75 329.252Z" fill="white"/>
<path d="M420.789 283.211L421.276 283.211L421.276 274.789L420.789 274.789L420.789 273.789L422.276 273.789L422.276 284.211L420.789 284.211L420.789 283.211Z" fill="white"/>
<path d="M640.209 246.023L641.209 246.023L641.209 311.978L640.209 311.978L640.209 246.023ZM622.248 228.178L439.75 228.178C429.825 228.178 421.789 236.173 421.789 246.023L421.789 311.978C421.789 321.827 429.825 329.822 439.75 329.822L622.248 329.822C632.173 329.822 640.209 321.827 640.209 311.978L641.209 311.978L641.203 312.464C640.944 322.647 632.556 330.822 622.248 330.822L439.75 330.822C429.442 330.822 421.054 322.647 420.795 312.464L420.789 311.978L420.789 246.023C420.789 235.615 429.278 227.178 439.75 227.178L622.248 227.178L622.737 227.184C632.82 227.437 640.948 235.515 641.203 245.536L641.209 246.023L640.209 246.023C640.209 236.173 632.173 228.178 622.248 228.178Z" fill="white"/>
<path d="M622.249 334.607L439.751 334.607C427.203 334.607 417 324.493 417 311.978L420 311.978L420.007 312.484C420.277 323.091 429.013 331.607 439.751 331.607L622.249 331.607C632.987 331.607 641.723 323.091 641.993 312.484L642 311.978L642 246.022C642 235.351 633.431 226.668 622.759 226.399L622.249 226.393L439.751 226.393C428.843 226.393 420 235.181 420 246.022L417 246.022C417 233.507 427.203 223.393 439.751 223.393L622.249 223.393C634.797 223.393 645 233.507 645 246.022L645 311.978C645 324.493 634.797 334.607 622.249 334.607ZM417 246.022L420 246.022L420 311.978L417 311.978L417 246.022Z" fill="white"/>
<path d="M435.01 294.311C432.392 294.311 430.27 292.201 430.27 289.599L430.27 268.792C430.27 266.19 432.392 264.081 435.01 264.081C437.628 264.081 439.75 266.19 439.75 268.792L439.75 289.599C439.75 292.201 437.628 294.311 435.01 294.311Z" fill="white"/>
<path d="M438.75 268.792L439.75 268.792L439.75 289.6L438.75 289.6L438.75 268.792ZM435.01 265.081C433.003 265.081 431.374 266.646 431.274 268.601L431.27 268.792L431.27 289.6C431.27 291.643 432.938 293.311 435.01 293.311C437.081 293.311 438.75 291.643 438.75 289.6L439.75 289.6L439.744 289.842C439.621 292.251 437.678 294.183 435.254 294.305L435.01 294.311C432.392 294.311 430.27 292.201 430.27 289.6L430.27 268.792L430.275 268.55C430.402 266.06 432.474 264.081 435.01 264.081L435.254 264.087C437.678 264.209 439.621 266.141 439.744 268.55L439.75 268.792L438.75 268.792C438.75 266.748 437.081 265.081 435.01 265.081Z" fill="white"/>
</g>
<g opacity="0.15">
<path d="M751.585 107C764.1 107 774.215 117.203 774.215 129.751V312.249C774.215 324.797 764.1 335 751.585 335H685.63C673.115 335 663 324.797 663 312.249V129.751C663 117.203 673.115 107 685.63 107H751.585ZM685.63 108C673.673 108 664 117.75 664 129.751V312.249C664 324.25 673.673 334 685.63 334H751.585C763.542 334 773.215 324.25 773.215 312.249V129.751C773.215 117.75 763.542 108 751.585 108H685.63ZM751.585 109C762.984 109 772.215 118.296 772.215 129.751V312.263L772.208 312.772V312.784C771.926 323.992 762.806 333 751.585 333H685.616L685.109 332.993H685.098C673.944 332.709 665 323.525 665 312.249V129.751C665 118.475 673.944 109.291 685.098 109.007H685.109L685.616 109H751.585ZM685.123 110.007C674.516 110.277 666 119.013 666 129.751V312.249C666 322.987 674.516 331.723 685.123 331.993L685.63 332H751.585C762.257 332 770.939 323.431 771.208 312.759L771.215 312.249V129.751C771.215 118.843 762.426 110 751.585 110H685.63L685.123 110.007Z" fill="white"/>
<path d="M667.178 129.75C667.178 119.278 675.615 110.789 686.022 110.789H751.978C762.385 110.789 770.822 119.278 770.822 129.75V312.248C770.822 322.72 762.385 331.209 751.978 331.209H686.022C675.615 331.209 667.178 322.72 667.178 312.248V129.75Z" fill="url(#pattern0_5406_1499)"/>
<path d="M729.208 128.75V129.75H708.4V128.75H729.208ZM732.919 125.01C732.919 123.003 731.354 121.374 729.399 121.274L729.208 121.27H708.4C706.357 121.27 704.689 122.938 704.689 125.01C704.689 127.081 706.357 128.75 708.4 128.75V129.75L708.158 129.744C705.749 129.621 703.818 127.678 703.695 125.254L703.689 125.01C703.689 122.392 705.799 120.27 708.4 120.27H729.208L729.45 120.275C731.94 120.402 733.919 122.474 733.919 125.01L733.913 125.254C733.791 127.678 731.859 129.621 729.45 129.744L729.208 129.75V128.75C731.252 128.75 732.919 127.081 732.919 125.01Z" fill="white"/>
</g>
<path d="M641.831 162L631.417 172.414L628.589 169.586L633.912 164.262C622.542 165.475 615.32 170.749 610.816 177.039C605.597 184.325 603.924 193.131 604.003 198.973L600.003 199.027C599.915 192.536 601.741 182.841 607.564 174.711C612.858 167.319 621.375 161.347 634.375 160.2L628.589 154.414L631.417 151.586L641.831 162Z" fill="white"/>
<path d="M610.685 154.809C610.825 154.809 610.948 154.776 611.055 154.709C611.168 154.642 611.255 154.556 611.315 154.449C611.375 154.336 611.405 154.216 611.405 154.089C611.405 153.969 611.375 153.856 611.315 153.749C611.255 153.636 611.168 153.546 611.055 153.479C610.948 153.412 610.825 153.379 610.685 153.379C610.545 153.379 610.418 153.412 610.305 153.479C610.198 153.546 610.115 153.636 610.055 153.749C609.995 153.856 609.965 153.969 609.965 154.089C609.965 154.216 609.995 154.336 610.055 154.449C610.115 154.556 610.198 154.642 610.305 154.709C610.418 154.776 610.545 154.809 610.685 154.809ZM609.305 154.089C609.305 153.836 609.365 153.606 609.485 153.399C609.605 153.186 609.771 153.019 609.985 152.899C610.198 152.772 610.431 152.709 610.685 152.709C610.931 152.709 611.161 152.772 611.375 152.899C611.588 153.019 611.755 153.186 611.875 153.399C612.001 153.612 612.065 153.842 612.065 154.089C612.065 154.342 612.001 154.576 611.875 154.789C611.755 155.002 611.588 155.169 611.375 155.289C611.168 155.409 610.938 155.469 610.685 155.469C610.431 155.469 610.198 155.409 609.985 155.289C609.771 155.169 609.605 155.002 609.485 154.789C609.365 154.576 609.305 154.342 609.305 154.089Z" fill="white"/>
<path d="M606.201 159.181C606.541 159.181 606.824 159.051 607.051 158.791C607.277 158.524 607.444 158.184 607.551 157.771C607.657 157.351 607.711 156.904 607.711 156.431C607.711 155.957 607.657 155.521 607.551 155.121C607.444 154.714 607.277 154.387 607.051 154.141C606.824 153.887 606.541 153.761 606.201 153.761C605.861 153.761 605.577 153.887 605.351 154.141C605.124 154.387 604.957 154.714 604.851 155.121C604.744 155.521 604.691 155.957 604.691 156.431C604.691 156.904 604.744 157.351 604.851 157.771C604.957 158.184 605.124 158.524 605.351 158.791C605.577 159.051 605.861 159.181 606.201 159.181ZM603.551 156.431C603.551 155.771 603.637 155.171 603.811 154.631C603.984 154.084 604.267 153.644 604.661 153.311C605.061 152.971 605.574 152.801 606.201 152.801C606.827 152.801 607.337 152.971 607.731 153.311C608.131 153.644 608.417 154.084 608.591 154.631C608.764 155.171 608.851 155.771 608.851 156.431C608.851 157.091 608.764 157.701 608.591 158.261C608.417 158.821 608.131 159.274 607.731 159.621C607.337 159.967 606.827 160.141 606.201 160.141C605.574 160.141 605.061 159.967 604.661 159.621C604.267 159.274 603.984 158.821 603.811 158.261C603.637 157.701 603.551 157.091 603.551 156.431Z" fill="white"/>
<path d="M597.449 155.289C597.449 154.816 597.559 154.389 597.779 154.009C598.006 153.623 598.316 153.323 598.709 153.109C599.109 152.889 599.559 152.779 600.059 152.779C600.446 152.779 600.803 152.846 601.129 152.979C601.456 153.113 601.736 153.306 601.969 153.559C602.236 153.846 602.426 154.219 602.539 154.679C602.653 155.133 602.709 155.679 602.709 156.319C602.709 157.033 602.616 157.676 602.429 158.249C602.249 158.823 601.959 159.283 601.559 159.629C601.166 159.969 600.669 160.139 600.069 160.139C599.603 160.139 599.196 160.063 598.849 159.909C598.503 159.749 598.226 159.533 598.019 159.259C597.819 158.979 597.689 158.666 597.629 158.319H598.769C598.956 158.899 599.379 159.189 600.039 159.189C600.519 159.189 600.876 158.996 601.109 158.609C601.343 158.223 601.483 157.686 601.529 156.999C601.376 157.186 601.156 157.353 600.869 157.499C600.589 157.639 600.266 157.709 599.899 157.709C599.433 157.709 599.013 157.606 598.639 157.399C598.266 157.186 597.973 156.896 597.759 156.529C597.553 156.163 597.449 155.749 597.449 155.289ZM598.589 155.229C598.589 155.509 598.653 155.766 598.779 155.999C598.906 156.233 599.079 156.416 599.299 156.549C599.526 156.683 599.779 156.749 600.059 156.749C600.339 156.749 600.589 156.679 600.809 156.539C601.036 156.393 601.209 156.203 601.329 155.969C601.456 155.736 601.519 155.489 601.519 155.229C601.519 154.949 601.453 154.696 601.319 154.469C601.193 154.243 601.019 154.066 600.799 153.939C600.579 153.806 600.333 153.739 600.059 153.739C599.786 153.739 599.536 153.806 599.309 153.939C599.089 154.066 598.913 154.246 598.779 154.479C598.653 154.706 598.589 154.956 598.589 155.229Z" fill="white"/>
<path d="M195.571 322.103C194.643 325.527 191.827 327.415 188.019 327.415C183.091 327.415 179.795 323.863 179.795 318.647C179.795 313.655 183.251 310.039 187.987 310.039C193.715 310.039 195.795 314.551 195.827 319.031V319.639H182.963C183.219 322.807 185.203 324.727 187.987 324.727C190.035 324.727 191.763 323.927 192.339 322.103H195.571ZM182.995 317.175H192.563C192.307 314.551 190.835 312.663 187.987 312.663C185.171 312.663 183.379 314.487 182.995 317.175Z" fill="white"/>
<path d="M178.123 321.783C177.259 325.367 174.635 327.415 170.635 327.415C165.579 327.415 162.059 323.863 162.059 318.743C162.059 313.591 165.579 310.039 170.635 310.039C174.795 310.039 177.323 312.375 177.995 315.575H174.795C174.187 314.007 173.003 312.695 170.571 312.695C167.371 312.695 165.323 315.351 165.323 318.743C165.323 322.103 167.371 324.727 170.571 324.727C172.779 324.727 174.219 323.703 174.891 321.783H178.123Z" fill="white"/>
<path d="M145.629 326.999V310.455H148.893V313.463C149.757 311.575 151.293 310.039 153.853 310.039C158.173 310.039 159.805 312.887 159.805 316.471V326.999H156.541V317.015C156.541 314.263 155.485 312.855 153.213 312.855C150.845 312.855 148.925 314.871 148.925 319.095V326.999H145.629Z" fill="white"/>
<path d="M142.897 322.103C141.969 325.527 139.153 327.415 135.345 327.415C130.417 327.415 127.121 323.863 127.121 318.647C127.121 313.655 130.577 310.039 135.313 310.039C141.041 310.039 143.121 314.551 143.153 319.031V319.639H130.289C130.545 322.807 132.529 324.727 135.313 324.727C137.361 324.727 139.089 323.927 139.665 322.103H142.897ZM130.321 317.175H139.889C139.633 314.551 138.161 312.663 135.313 312.663C132.497 312.663 130.705 314.487 130.321 317.175Z" fill="white"/>
<path d="M124.743 307.576H121.287V304.152H124.743V307.576ZM121.223 327V310.456H124.519V327H121.223Z" fill="white"/>
<path d="M114.563 310.455V313.655C115.427 311.287 117.091 310.359 119.523 310.359V313.463C119.363 313.463 118.627 313.495 118.147 313.623C116.387 313.911 114.595 314.775 114.595 319.319V326.999H111.299V310.455H114.563Z" fill="white"/>
<path d="M108.536 322.103C107.608 325.527 104.792 327.415 100.984 327.415C96.0558 327.415 92.7598 323.863 92.7598 318.647C92.7598 313.655 96.2158 310.039 100.952 310.039C106.68 310.039 108.76 314.551 108.792 319.031V319.639H95.9278C96.1838 322.807 98.1678 324.727 100.952 324.727C103 324.727 104.728 323.927 105.304 322.103H108.536ZM95.9598 317.175H105.528C105.272 314.551 103.8 312.663 100.952 312.663C98.1358 312.663 96.3438 314.487 95.9598 317.175Z" fill="white"/>
<path d="M83.6628 310.039C88.2708 310.039 91.2788 313.495 91.2788 318.679C91.2788 323.863 88.2388 327.383 83.6308 327.383C80.7188 327.383 78.7668 325.495 78.1588 323.927H78.1268V333.399H74.7988V310.455H78.1268V313.623H78.1588C78.7348 311.991 80.6868 310.039 83.6628 310.039ZM77.9348 318.679C77.9348 321.815 79.5348 324.663 82.9588 324.663C86.2868 324.663 87.9828 322.103 87.9828 318.679C87.9828 315.287 86.2228 312.759 82.9588 312.759C79.5668 312.759 77.9348 315.607 77.9348 318.679Z" fill="white"/>
<path d="M57.1836 326.999L63.1356 318.551L57.4716 310.455H61.3116L65.0556 315.959L68.7996 310.455H72.6396L66.9756 318.519L72.9276 326.999H69.0876L65.0556 321.111L61.0236 326.999H57.1836Z" fill="white"/>
<path d="M56.7682 322.103C55.8402 325.527 53.0242 327.415 49.2162 327.415C44.2882 327.415 40.9922 323.863 40.9922 318.647C40.9922 313.655 44.4482 310.039 49.1842 310.039C54.9122 310.039 56.9922 314.551 57.0242 319.031V319.639H44.1602C44.4162 322.807 46.4002 324.727 49.1842 324.727C51.2322 324.727 52.9602 323.927 53.5362 322.103H56.7682ZM44.1922 317.175H53.7602C53.5042 314.551 52.0322 312.663 49.1842 312.663C46.3682 312.663 44.5762 314.487 44.1922 317.175Z" fill="white"/>
<path d="M258.118 278.455V281.655C258.982 279.287 260.646 278.359 263.078 278.359V281.463C262.918 281.463 262.182 281.495 261.702 281.623C259.942 281.911 258.15 282.775 258.15 287.319V294.999H254.854V278.455H258.118Z" fill="white"/>
<path d="M252.089 290.103C251.161 293.527 248.345 295.415 244.537 295.415C239.609 295.415 236.313 291.863 236.313 286.647C236.313 281.655 239.769 278.039 244.505 278.039C250.233 278.039 252.313 282.551 252.345 287.031V287.639H239.481C239.737 290.807 241.721 292.727 244.505 292.727C246.553 292.727 248.281 291.927 248.857 290.103H252.089ZM239.513 285.175H249.081C248.825 282.551 247.353 280.663 244.505 280.663C241.689 280.663 239.897 282.487 239.513 285.175Z" fill="white"/>
<path d="M231.789 289.848C231.789 291.448 232.461 292.344 233.901 292.344H235.021V295.032H233.421C229.901 295.032 228.557 292.984 228.557 290.168V281.08H226.029V278.456H228.557V274.616L231.789 273.176V278.456H234.989V281.08H231.789V289.848Z" fill="white"/>
<path d="M222.211 289.848C222.211 291.448 222.883 292.344 224.323 292.344H225.443V295.032H223.843C220.323 295.032 218.979 292.984 218.979 290.168V281.08H216.451V278.456H218.979V274.616L222.211 273.176V278.456H225.411V281.08H222.211V289.848Z" fill="white"/>
<path d="M215.383 290.103C214.455 293.527 211.639 295.415 207.831 295.415C202.903 295.415 199.607 291.863 199.607 286.647C199.607 281.655 203.063 278.039 207.799 278.039C213.527 278.039 215.607 282.551 215.639 287.031V287.639H202.775C203.031 290.807 205.015 292.727 207.799 292.727C209.847 292.727 211.575 291.927 212.151 290.103H215.383ZM202.807 285.175H212.375C212.119 282.551 210.647 280.663 207.799 280.663C204.983 280.663 203.191 282.487 202.807 285.175Z" fill="white"/>
<path d="M190.51 278.04C195.118 278.04 198.126 281.496 198.126 286.68C198.126 291.864 195.087 295.384 190.479 295.384C187.567 295.384 185.615 293.496 185.007 291.928H184.974V295H181.647V272.152H184.974V281.624H185.007C185.583 279.992 187.534 278.04 190.51 278.04ZM184.783 286.68C184.783 289.816 186.382 292.664 189.806 292.664C193.134 292.664 194.83 290.104 194.83 286.68C194.83 283.288 193.07 280.76 189.806 280.76C186.414 280.76 184.783 283.608 184.783 286.68Z" fill="white"/>
<path d="M168.036 278.455V281.655C168.9 279.287 170.563 278.359 172.995 278.359V281.463C172.835 281.463 172.1 281.495 171.62 281.623C169.86 281.911 168.068 282.775 168.068 287.319V294.999H164.772V278.455H168.036Z" fill="white"/>
<path d="M154.021 295.415C149.061 295.415 145.605 291.767 145.605 286.743C145.605 281.719 149.061 278.039 154.021 278.039C158.981 278.039 162.405 281.719 162.405 286.743C162.405 291.767 158.981 295.415 154.021 295.415ZM148.869 286.743C148.869 290.007 150.917 292.695 154.021 292.695C157.093 292.695 159.173 290.007 159.173 286.743C159.173 283.447 157.093 280.759 154.021 280.759C150.917 280.759 148.869 283.447 148.869 286.743Z" fill="white"/>
<path d="M139.045 276.92C139.045 274.328 140.261 272.152 143.525 272.152H145.381V274.808H144.389C143.045 274.808 142.309 275.256 142.309 277.08V278.456H145.093V281.08H142.309V295H139.045V281.08H136.773V278.456H139.045V276.92Z" fill="white"/>
<path d="M128.645 290.103C127.717 293.527 124.901 295.415 121.093 295.415C116.165 295.415 112.869 291.863 112.869 286.647C112.869 281.655 116.325 278.039 121.061 278.039C126.789 278.039 128.869 282.551 128.901 287.031V287.639H116.037C116.293 290.807 118.277 292.727 121.061 292.727C123.109 292.727 124.837 291.927 125.413 290.103H128.645ZM116.069 285.175H125.637C125.381 282.551 123.909 280.663 121.061 280.663C118.245 280.663 116.453 282.487 116.069 285.175Z" fill="white"/>
<path d="M96.4395 294.999V278.455H99.7035V281.463C100.567 279.575 102.103 278.039 104.663 278.039C108.983 278.039 110.615 280.887 110.615 284.471V294.999H107.351V285.015C107.351 282.263 106.295 280.855 104.023 280.855C101.655 280.855 99.7355 282.871 99.7355 287.095V294.999H96.4395Z" fill="white"/>
<path d="M85.7227 295.415C80.7627 295.415 77.3067 291.767 77.3067 286.743C77.3067 281.719 80.7627 278.039 85.7227 278.039C90.6827 278.039 94.1067 281.719 94.1067 286.743C94.1067 291.767 90.6827 295.415 85.7227 295.415ZM80.5707 286.743C80.5707 290.007 82.6187 292.695 85.7227 292.695C88.7947 292.695 90.8747 290.007 90.8747 286.743C90.8747 283.447 88.7947 280.759 85.7227 280.759C82.6187 280.759 80.5707 283.447 80.5707 286.743Z" fill="white"/>
<path d="M60.877 295V272.152H64.141V281.464C65.005 279.576 66.541 278.04 69.101 278.04C73.421 278.04 75.053 280.888 75.053 284.472V295H71.789V285.016C71.789 282.264 70.733 280.856 68.461 280.856C66.093 280.856 64.173 282.872 64.173 287.096V295H60.877Z" fill="white"/>
<path d="M50.8796 278.039C55.4876 278.039 58.4956 281.495 58.4956 286.679C58.4956 291.863 55.4556 295.383 50.8476 295.383C47.9356 295.383 45.9836 293.495 45.3756 291.927H45.3436V301.399H42.0156V278.455H45.3436V281.623H45.3756C45.9516 279.991 47.9036 278.039 50.8796 278.039ZM45.1516 286.679C45.1516 289.815 46.7516 292.663 50.1756 292.663C53.5036 292.663 55.1996 290.103 55.1996 286.679C55.1996 283.287 53.4396 280.759 50.1756 280.759C46.7836 280.759 45.1516 283.607 45.1516 286.679Z" fill="white"/>
<path d="M194.379 246.455V249.655C195.243 247.287 196.907 246.359 199.339 246.359V249.463C199.179 249.463 198.443 249.495 197.963 249.623C196.203 249.911 194.411 250.775 194.411 255.319V262.999H191.115V246.455H194.379Z" fill="white"/>
<path d="M173.535 256.983V246.455H176.799V256.439C176.799 259.191 177.855 260.599 180.127 260.599C182.495 260.599 184.415 258.583 184.415 254.359V246.455H187.711V262.999H184.447V259.991C183.583 261.879 182.047 263.415 179.487 263.415C175.167 263.415 173.535 260.567 173.535 256.983Z" fill="white"/>
<path d="M162.912 263.415C157.952 263.415 154.496 259.767 154.496 254.743C154.496 249.719 157.952 246.039 162.912 246.039C167.872 246.039 171.296 249.719 171.296 254.743C171.296 259.767 167.872 263.415 162.912 263.415ZM157.76 254.743C157.76 258.007 159.808 260.695 162.912 260.695C165.984 260.695 168.064 258.007 168.064 254.743C168.064 251.447 165.984 248.759 162.912 248.759C159.808 248.759 157.76 251.447 157.76 254.743Z" fill="white"/>
<path d="M141.451 246.455C143.115 250.935 144.715 255.191 146.347 259.639H146.411C147.787 255.415 149.323 250.903 150.795 246.455H154.283C151.019 255.351 150.251 257.111 146.891 266.231C146.155 268.215 144.907 269.399 142.667 269.399H140.139V266.711H141.963C143.435 266.711 143.755 265.943 144.203 264.791L144.747 263.415C142.379 257.463 140.171 252.023 137.963 246.455H141.451Z" fill="white"/>
<path d="M130.444 258.103C129.516 261.527 126.7 263.415 122.892 263.415C117.964 263.415 114.668 259.863 114.668 254.647C114.668 249.655 118.124 246.039 122.86 246.039C128.588 246.039 130.668 250.551 130.7 255.031V255.639H117.836C118.092 258.807 120.076 260.727 122.86 260.727C124.908 260.727 126.636 259.927 127.212 258.103H130.444ZM117.868 253.175H127.436C127.18 250.551 125.708 248.663 122.86 248.663C120.044 248.663 118.252 250.487 117.868 253.175Z" fill="white"/>
<path d="M110.143 257.848C110.143 259.448 110.815 260.344 112.255 260.344H113.375V263.032H111.775C108.255 263.032 106.911 260.984 106.911 258.168V249.08H104.383V246.456H106.911V242.616L110.143 241.176V246.456H113.343V249.08H110.143V257.848Z" fill="white"/>
<path d="M89.2824 251.48C89.6664 248.952 91.7784 246.008 96.0984 246.008C101.89 246.008 102.914 249.624 102.914 252.696V259.416C102.914 260.664 103.01 262.104 103.17 263H99.7464C99.6824 262.296 99.6824 261.624 99.6824 260.824V260.12H99.6504C99.1704 261.432 97.7944 263.416 94.2744 263.416C90.4344 263.416 88.4824 260.984 88.4824 258.488C88.4824 253.848 94.2424 253.592 96.6744 253.176C98.8184 252.824 99.6504 252.312 99.6504 250.936C99.6504 249.56 98.3704 248.664 96.1624 248.664C94.2744 248.664 92.8664 249.752 92.4824 251.48H89.2824ZM91.7464 258.424C91.7464 259.864 93.0264 260.824 95.0104 260.824C97.3784 260.824 99.7144 259.32 99.7144 255.32V253.304C99.3624 254.296 98.5624 255.224 95.3944 255.768C93.0584 256.216 91.7464 256.888 91.7464 258.424Z" fill="white"/>
<path d="M83.7346 257.848C83.7346 259.448 84.4066 260.344 85.8466 260.344H86.9666V263.032H85.3666C81.8466 263.032 80.5026 260.984 80.5026 258.168V249.08H77.9746V246.456H80.5026V242.616L83.7346 241.176V246.456H86.9346V249.08H83.7346V257.848Z" fill="white"/>
<path d="M68.9238 263.415C63.9638 263.415 60.5078 259.767 60.5078 254.743C60.5078 249.719 63.9638 246.039 68.9238 246.039C73.8838 246.039 77.3078 249.719 77.3078 254.743C77.3078 259.767 73.8838 263.415 68.9238 263.415ZM63.7718 254.743C63.7718 258.007 65.8198 260.695 68.9238 260.695C71.9958 260.695 74.0758 258.007 74.0758 254.743C74.0758 251.447 71.9958 248.759 68.9238 248.759C65.8198 248.759 63.7718 251.447 63.7718 254.743Z" fill="white"/>
<path d="M42.4004 262.998V240.15H50.7844C56.0004 240.15 58.6884 242.998 58.6884 246.646C58.6884 249.942 56.5124 252.022 54.0164 252.63C56.1924 253.206 56.8644 254.966 57.6964 257.718C58.3364 259.798 58.8484 261.238 59.6804 262.71V262.998H56.0644C55.2964 261.494 54.7524 259.414 54.0804 257.59C53.2804 255.478 52.3204 253.846 49.5364 253.846H45.8564V262.998H42.4004ZM45.8564 250.966H50.6244C53.6644 250.966 55.2324 249.334 55.2324 246.774C55.2324 244.758 54.0484 243.03 50.4644 243.03H45.8564V250.966Z" fill="white"/>
</g>
<defs>
<clipPath id="clip0_5406_1499">
<rect width="372" height="812" fill="white" transform="translate(1.62606e-05 372) rotate(-90)"/>
</clipPath>
<pattern id="pattern0_5406_1499" patternUnits="userSpaceOnUse" patternTransform="matrix(8.835 0 0 8.835 667.111 110.722)" preserveAspectRatio="none" viewBox="-0.353516 -0.353516 46.5 46.5" width="1" height="1">
<use xlink:href="#pattern0_5406_1499_inner" transform="translate(-46.5 -46.5)"/>
<use xlink:href="#pattern0_5406_1499_inner" transform="translate(0 -46.5)"/>
<use xlink:href="#pattern0_5406_1499_inner" transform="translate(-46.5 0)"/>
<g id="pattern0_5406_1499_inner">
<path d="M0 46.5L46.5 0" stroke="white"/>
</g>
</pattern></defs>
</svg>
